<svg width="26" height="26" viewBox="0 0 26 26" fill="none" xmlns="http://www.w3.org/2000/svg">
<g clip-path="url(#clip0_9_388)">
<path d="M20.4752 18.1748C22.2048 15.8634 22.9945 12.9827 22.6855 10.1124C22.3765 7.24211 20.9917 4.59546 18.8097 2.70518C16.6278 0.814905 13.8108 -0.178642 10.9258 -0.0754624C8.04081 0.0277172 5.30198 1.21996 3.26067 3.26128C1.21935 5.30259 0.0271069 8.04142 -0.0760727 10.9264C-0.179252 13.8114 0.814295 16.6284 2.70457 18.8104C4.59485 20.9923 7.2415 22.3771 10.1118 22.6861C12.982 22.9952 15.8628 22.2054 18.1742 20.4758L23.6992 26.0008L26.0002 23.7041L20.4752 18.1748ZM11.3752 19.5008C9.76823 19.5008 8.19734 19.0243 6.86119 18.1315C5.52504 17.2387 4.48364 15.9698 3.86868 14.4851C3.25372 13.0005 3.09281 11.3668 3.40632 9.7907C3.71982 8.2146 4.49365 6.76687 5.62996 5.63057C6.76626 4.49426 8.21399 3.72043 9.79009 3.40693C11.3662 3.09342 12.9999 3.25433 14.4845 3.86929C15.9692 4.48425 17.2381 5.52565 18.1309 6.8618C19.0237 8.19795 19.5002 9.76884 19.5002 11.3758C19.4982 13.5301 18.6415 15.5955 17.1182 17.1188C15.5949 18.6421 13.5295 19.4988 11.3752 19.5008Z" fill="#F7F1F4"/>
</g>
<defs>
<clipPath id="clip0_9_388">
<rect width="26" height="26" fill="white"/>
</clipPath>
</defs>
</svg>
