<svg width="26" height="26" viewBox="0 0 26 26" fill="none" xmlns="http://www.w3.org/2000/svg">
<g clip-path="url(#clip0_1_45)">
<path d="M19.5 6.5C19.5 4.77609 18.8152 3.12279 17.5962 1.90381C16.3772 0.684819 14.7239 0 13 0C11.2761 0 9.62279 0.684819 8.40381 1.90381C7.18482 3.12279 6.5 4.77609 6.5 6.5H0V22.75C0 23.612 0.34241 24.4386 0.951903 25.0481C1.5614 25.6576 2.38805 26 3.25 26H22.75C23.612 26 24.4386 25.6576 25.0481 25.0481C25.6576 24.4386 26 23.612 26 22.75V6.5H19.5ZM13 2.16667C14.1493 2.16667 15.2515 2.62321 16.0641 3.43587C16.8768 4.24853 17.3333 5.35073 17.3333 6.5H8.66667C8.66667 5.35073 9.12321 4.24853 9.93587 3.43587C10.7485 2.62321 11.8507 2.16667 13 2.16667ZM23.8333 22.75C23.8333 23.0373 23.7192 23.3129 23.516 23.516C23.3129 23.7192 23.0373 23.8333 22.75 23.8333H3.25C2.96268 23.8333 2.68713 23.7192 2.48397 23.516C2.2808 23.3129 2.16667 23.0373 2.16667 22.75V8.66667H6.5V10.8333H8.66667V8.66667H17.3333V10.8333H19.5V8.66667H23.8333V22.75Z" fill="#F7F1F4"/>
</g>
<defs>
<clipPath id="clip0_1_45">
<rect width="26" height="26" fill="white"/>
</clipPath>
</defs>
</svg>
