<svg width="26" height="24" viewBox="0 0 26 24" fill="none" xmlns="http://www.w3.org/2000/svg">
<g clip-path="url(#clip0_9_298)">
<path d="M22.7499 4H19.3916C19.1401 2.87141 18.4749 1.85735 17.5079 1.12872C16.541 0.40009 15.3315 0.00145452 14.0832 0L11.9166 0C10.6683 0.00145452 9.45883 0.40009 8.49188 1.12872C7.52493 1.85735 6.85967 2.87141 6.60823 4H3.2499C2.96258 4 2.68703 4.10536 2.48387 4.29289C2.2807 4.48043 2.16656 4.73478 2.16656 5C2.16656 5.26522 2.2807 5.51957 2.48387 5.70711C2.68703 5.89464 2.96258 6 3.2499 6H4.33323V19C4.33495 20.3256 4.90619 21.5964 5.92164 22.5338C6.93709 23.4711 8.31384 23.9984 9.7499 24H16.2499C17.686 23.9984 19.0627 23.4711 20.0782 22.5338C21.0936 21.5964 21.6648 20.3256 21.6666 19V6H22.7499C23.0372 6 23.3128 5.89464 23.5159 5.70711C23.7191 5.51957 23.8332 5.26522 23.8332 5C23.8332 4.73478 23.7191 4.48043 23.5159 4.29289C23.3128 4.10536 23.0372 4 22.7499 4V4ZM11.9166 2H14.0832C14.7552 2.00076 15.4105 2.19338 15.9591 2.55144C16.5078 2.90951 16.9231 3.41549 17.148 4H8.85181C9.0767 3.41549 9.49196 2.90951 10.0407 2.55144C10.5893 2.19338 11.2446 2.00076 11.9166 2V2ZM19.4999 19C19.4999 19.7956 19.1575 20.5587 18.548 21.1213C17.9385 21.6839 17.1119 22 16.2499 22H9.7499C8.88794 22 8.06129 21.6839 7.4518 21.1213C6.84231 20.5587 6.4999 19.7956 6.4999 19V6H19.4999V19Z" fill="#F0F0F0"/>
<path d="M10.8333 17.9994C11.1206 17.9994 11.3962 17.894 11.5994 17.7065C11.8025 17.5189 11.9167 17.2646 11.9167 16.9994V10.9994C11.9167 10.7342 11.8025 10.4798 11.5994 10.2923C11.3962 10.1047 11.1206 9.99937 10.8333 9.99937C10.546 9.99937 10.2705 10.1047 10.0673 10.2923C9.86414 10.4798 9.75 10.7342 9.75 10.9994V16.9994C9.75 17.2646 9.86414 17.5189 10.0673 17.7065C10.2705 17.894 10.546 17.9994 10.8333 17.9994Z" fill="#F0F0F0"/>
<path d="M15.1665 17.9994C15.4538 17.9994 15.7294 17.894 15.9326 17.7065C16.1357 17.5189 16.2499 17.2646 16.2499 16.9994V10.9994C16.2499 10.7342 16.1357 10.4798 15.9326 10.2923C15.7294 10.1047 15.4538 9.99937 15.1665 9.99937C14.8792 9.99937 14.6037 10.1047 14.4005 10.2923C14.1973 10.4798 14.0832 10.7342 14.0832 10.9994V16.9994C14.0832 17.2646 14.1973 17.5189 14.4005 17.7065C14.6037 17.894 14.8792 17.9994 15.1665 17.9994Z" fill="#F0F0F0"/>
</g>
<defs>
<clipPath id="clip0_9_298">
<rect width="26" height="24" fill="white"/>
</clipPath>
</defs>
</svg>
