<svg width="26" height="26" viewBox="0 0 26 26" fill="none" xmlns="http://www.w3.org/2000/svg">
<g clip-path="url(#clip0_1_48)">
<path d="M26 3.25H4.5955L4.55 2.86975C4.45689 2.07937 4.077 1.35063 3.48236 0.821684C2.88773 0.292742 2.11968 0.000370276 1.32383 0L0 0V2.16667H1.32383C1.58918 2.1667 1.84528 2.26412 2.04357 2.44044C2.24186 2.61676 2.36854 2.85973 2.39958 3.12325L4.11667 17.7136C4.20978 18.504 4.58967 19.2327 5.1843 19.7617C5.77894 20.2906 6.54699 20.583 7.34283 20.5833H21.6667V18.4167H7.34283C7.07732 18.4166 6.82108 18.319 6.62277 18.1425C6.42446 17.9659 6.29788 17.7227 6.26708 17.459L6.12517 16.25H23.6557L26 3.25ZM21.8443 14.0833H5.87058L4.85117 5.41667H23.4076L21.8443 14.0833Z" fill="#F0F0F0"/>
<path d="M7.5835 26.0007C8.78012 26.0007 9.75016 25.0306 9.75016 23.834C9.75016 22.6374 8.78012 21.6674 7.5835 21.6674C6.38689 21.6674 5.41684 22.6374 5.41684 23.834C5.41684 25.0306 6.38689 26.0007 7.5835 26.0007Z" fill="#F0F0F0"/>
<path d="M18.4167 26.0007C19.6133 26.0007 20.5833 25.0306 20.5833 23.834C20.5833 22.6374 19.6133 21.6674 18.4167 21.6674C17.22 21.6674 16.25 22.6374 16.25 23.834C16.25 25.0306 17.22 26.0007 18.4167 26.0007Z" fill="#F0F0F0"/>
</g>
<defs>
<clipPath id="clip0_1_48">
<rect width="26" height="26" fill="white"/>
</clipPath>
</defs>
</svg>
